<?xml version="1.0" encoding="iso-8859-1"?>
<!-- Generator: Adobe Illustrator 19.0.0, SVG Export Plug-In . SVG Version: 6.00 Build 0)  -->
<svg version="1.1" id="Capa_1" xmlns="http://www.w3.org/2000/svg" xmlns:xlink="http://www.w3.org/1999/xlink" x="0px" y="0px"
	 viewBox="0 0 380 380" style="enable-background:new 0 0 380 380;" xml:space="preserve">
<g id="XMLID_795_">
	<path id="XMLID_43_" style="fill:#FFEB99;" d="M88.889,82.734V57.266c0-6.775,5.492-12.266,12.266-12.266h199.586v50H101.155
		C94.381,95,88.889,89.508,88.889,82.734z"/>
	<path id="XMLID_796_" style="fill:#00D7DF;" d="M100.926,45h199.815V20H82.63C70.132,20,60,30.521,60,43.5v53
		c0,12.979,10.132,23.5,22.63,23.5h218.111V95H100.926c-6.648,0-12.037-5.596-12.037-12.5v-25C88.889,50.596,94.278,45,100.926,45z"
		/>
	<polygon id="XMLID_797_" style="fill:#FFDA44;" points="156.296,60 108.148,60 108.148,0 132.222,10 156.296,0 	"/>
	<rect id="XMLID_798_" x="190" y="45" style="fill:#FFE477;" width="110.741" height="50"/>
	<g id="XMLID_799_">
		<rect id="XMLID_800_" x="190" y="95" style="fill:#00969B;" width="110.741" height="25"/>
		<rect id="XMLID_801_" x="190" y="20" style="fill:#00969B;" width="110.741" height="25"/>
	</g>
	<rect id="XMLID_36_" x="60" y="80" style="fill:#00D7DF;" width="260" height="300"/>
	<rect id="XMLID_802_" x="190" y="80" style="fill:#00969B;" width="130" height="300"/>
	<rect id="XMLID_34_" x="112.963" y="130" style="fill:#FFDA44;" width="154.074" height="50"/>
	<rect id="XMLID_33_" x="132.222" y="300" style="fill:#FFEB99;" width="115.556" height="40"/>
	<rect id="XMLID_803_" x="190" y="300" style="fill:#FFE477;" width="57.778" height="40"/>
	<rect id="XMLID_804_" x="190" y="130" style="fill:#FFCD00;" width="77.037" height="50"/>
</g>
<g>
</g>
<g>
</g>
<g>
</g>
<g>
</g>
<g>
</g>
<g>
</g>
<g>
</g>
<g>
</g>
<g>
</g>
<g>
</g>
<g>
</g>
<g>
</g>
<g>
</g>
<g>
</g>
<g>
</g>
</svg>
