<svg xmlns="http://www.w3.org/2000/svg"  viewBox="0 0 100 100" width="100px" height="100px"><path fill="#f497b0" d="M54.5,18.473c-1.5,3-2.5,8-2.5,11.5c3.25,3.25,7,4,7,4l1-15L54.5,18.473z"/><path fill="#1f212b" d="M59.922,35.177l-1.118-0.224c-0.165-0.033-4.086-0.849-7.511-4.273L51,30.387v-0.414 c0-3.84,1.12-8.977,2.605-11.947l0.305-0.61l7.152,0.65L59.922,35.177z M53.004,29.554c1.866,1.757,3.873,2.672,5.081,3.104 l0.852-12.778l-3.829-0.348C53.939,22.204,53.074,26.298,53.004,29.554z"/><path fill="#f497b0" d="M49,16.473c0-9.5-4-13.5-9.5-13.5c-5.247,0-9.5,6-9.5,14c0,17,4.253,23,9.5,23 C49,39.973,49,26.69,49,16.473z"/><path fill="#1f212b" d="M39.5,40.973c-4.79,0-10.5-4.164-10.5-24c0-8.411,4.612-15,10.5-15c3.157,0,10.5,1.413,10.5,14.5 C50,26.813,50,40.973,39.5,40.973z M39.5,3.973c-4.767,0-8.5,5.71-8.5,13c0,14.187,3.019,22,8.5,22c8.5,0,8.5-12.476,8.5-22.5 C48,8.412,44.981,3.973,39.5,3.973z"/><path fill="#fef6aa" d="M45.5,19.966c0-8.088-2.316-11.493-5.5-11.493c-3.038,0-5.5,4.689-5.5,11.5 c0,6.831,2.962,13.5,6,13.5C45,33.473,45.5,28.665,45.5,19.966z"/><path fill="#1f212b" d="M40.5,33.973c-3.341,0-6.5-6.804-6.5-14c0-6.953,2.523-12,6-12c2.241,0,6,1.558,6,11.993 C46,28.427,45.617,33.973,40.5,33.973z M40,8.973c-2.804,0-5,4.832-5,11c0,7.001,3.024,13,5.5,13c3.85,0,4.5-4.013,4.5-13.007 C45,12.877,43.224,8.973,40,8.973z"/><circle cx="34" cy="83.973" r="5" fill="#fef6aa"/><path fill="#1f212b" d="M34,89.973c-3.309,0-6-2.691-6-6s2.691-6,6-6s6,2.691,6,6S37.309,89.973,34,89.973z M34,79.973 c-2.206,0-4,1.794-4,4s1.794,4,4,4s4-1.794,4-4S36.206,79.973,34,79.973z"/><path fill="#f497b0" d="M29,83.973c0-6,4-13,7-16c1.75,0,3,0,3,0v16H29z"/><path fill="#1f212b" d="M40,84.973H28v-1c0-6.493,4.265-13.679,7.293-16.707l0.293-0.293H40V84.973z M30.038,82.973H38v-14 h-1.576C33.889,71.678,30.433,77.572,30.038,82.973z"/><circle cx="66" cy="83.973" r="5" fill="#fef6aa"/><path fill="#1f212b" d="M66,89.973c-3.309,0-6-2.691-6-6s2.691-6,6-6s6,2.691,6,6S69.309,89.973,66,89.973z M66,79.973 c-2.206,0-4,1.794-4,4s1.794,4,4,4s4-1.794,4-4S68.206,79.973,66,79.973z"/><path fill="#f497b0" d="M71,83.973c0-6-4-13-7-16c-1.75,0-3,0-3,0v16H71z"/><path fill="#1f212b" d="M72,84.973H60v-18h4.414l0.293,0.293C67.735,70.294,72,77.48,72,83.973V84.973z M62,82.973h7.962 c-0.396-5.4-3.852-11.295-6.386-14H62V82.973z"/><path fill="#f497b0" d="M60.129,96.973c1.573,0,3.005-0.918,3.652-2.352C65.188,91.5,66,87.863,66,83.973 c0-11.598-7.163-21-16-21s-16,9.402-16,21c0,3.89,0.812,7.527,2.219,10.648c0.647,1.434,2.078,2.352,3.652,2.352H60.129z"/><path fill="#1f212b" d="M60.129,97.973H39.871c-1.967,0-3.758-1.154-4.563-2.94C33.798,91.683,33,87.859,33,83.973 c0-12.131,7.626-22,17-22s17,9.869,17,22c0,3.886-0.798,7.71-2.308,11.06C63.887,96.819,62.096,97.973,60.129,97.973z M50,63.973 c-8.271,0-15,8.972-15,20c0,3.604,0.737,7.145,2.131,10.237c0.483,1.071,1.559,1.763,2.74,1.763h20.258 c1.182,0,2.257-0.691,2.74-1.763C64.263,91.117,65,87.577,65,83.973C65,72.945,58.271,63.973,50,63.973z"/><path fill="#f497b0" d="M61.839,96.973c0.731,0,1.417-0.377,1.771-1.005C64.484,94.417,65,92.523,65,90.473 c0-5.247-3.358-9.5-7.5-9.5s-7.5,4.253-7.5,9.5c0,2.05,0.516,3.944,1.389,5.495c0.354,0.629,1.041,1.005,1.771,1.005H61.839z"/><path fill="#1f212b" d="M61.839,97.973h-8.679c-1.104,0-2.116-0.58-2.643-1.514C49.525,94.695,49,92.625,49,90.473 c0-5.79,3.813-10.5,8.5-10.5s8.5,4.71,8.5,10.5c0,2.152-0.525,4.222-1.518,5.985C63.956,97.393,62.943,97.973,61.839,97.973z M57.5,81.973c-3.584,0-6.5,3.813-6.5,8.5c0,1.81,0.436,3.54,1.261,5.005c0.172,0.305,0.517,0.495,0.9,0.495h8.679 c0.383,0,0.728-0.19,0.9-0.496c0.824-1.464,1.26-3.194,1.26-5.004C64,85.786,61.084,81.973,57.5,81.973z"/><path fill="#f497b0" d="M46.839,96.973c0.731,0,1.417-0.377,1.771-1.005C49.484,94.417,50,92.523,50,90.473 c0-5.247-3.358-9.5-7.5-9.5s-7.5,4.253-7.5,9.5c0,2.05,0.516,3.944,1.389,5.495c0.354,0.629,1.041,1.005,1.771,1.005H46.839z"/><path fill="#1f212b" d="M46.839,97.973h-8.679c-1.104,0-2.116-0.58-2.643-1.514C34.525,94.695,34,92.625,34,90.473 c0-5.79,3.813-10.5,8.5-10.5s8.5,4.71,8.5,10.5c0,2.152-0.525,4.222-1.518,5.985C48.956,97.393,47.943,97.973,46.839,97.973z M42.5,81.973c-3.584,0-6.5,3.813-6.5,8.5c0,1.81,0.436,3.54,1.261,5.005c0.172,0.305,0.517,0.495,0.9,0.495h8.679 c0.383,0,0.728-0.19,0.9-0.496c0.824-1.464,1.26-3.194,1.26-5.004C49,85.786,46.084,81.973,42.5,81.973z"/><g><path fill="#f497b0" d="M78,52.973c0-12.15-12.536-24-28-24s-28,11.85-28,24s12.536,20,28,20S78,65.123,78,52.973z"/><path fill="#1f212b" d="M50,73.973c-16.804,0-29-8.832-29-21c0-13.317,13.551-25,29-25s29,11.683,29,25 C79,65.141,66.804,73.973,50,73.973z M50,29.973c-14.383,0-27,10.748-27,23c0,11.01,11.355,19,27,19s27-7.99,27-19 C77,40.721,64.383,29.973,50,29.973z"/></g><g><path fill="#1f212b" d="M73.5,53.973c-0.276,0-0.5-0.224-0.5-0.5c0-4.316-1.882-8.632-5.301-12.151 c-0.192-0.198-0.188-0.515,0.011-0.707c0.198-0.193,0.515-0.188,0.707,0.01C72.017,44.332,74,48.895,74,53.473 C74,53.749,73.776,53.973,73.5,53.973z"/><path fill="#1f212b" d="M66.5,40.011c-0.115,0-0.231-0.039-0.325-0.12c-0.616-0.528-1.275-1.036-1.96-1.511 c-0.227-0.157-0.283-0.469-0.125-0.696c0.157-0.226,0.469-0.281,0.696-0.126c0.712,0.494,1.398,1.023,2.04,1.573 c0.21,0.18,0.234,0.495,0.055,0.705C66.781,39.951,66.641,40.011,66.5,40.011z"/></g><g><circle cx="44.5" cy="51.473" r="2" fill="#444445"/><path fill="#1f212b" d="M44.5,53.973c-1.378,0-2.5-1.121-2.5-2.5s1.122-2.5,2.5-2.5s2.5,1.121,2.5,2.5 S45.878,53.973,44.5,53.973z M44.5,49.973c-0.827,0-1.5,0.673-1.5,1.5s0.673,1.5,1.5,1.5s1.5-0.673,1.5-1.5 S45.327,49.973,44.5,49.973z"/></g><g><circle cx="55.5" cy="51.473" r="2" fill="#444445"/><path fill="#1f212b" d="M55.5,53.973c-1.378,0-2.5-1.121-2.5-2.5s1.122-2.5,2.5-2.5s2.5,1.121,2.5,2.5 S56.878,53.973,55.5,53.973z M55.5,49.973c-0.827,0-1.5,0.673-1.5,1.5s0.673,1.5,1.5,1.5s1.5-0.673,1.5-1.5 S56.327,49.973,55.5,49.973z"/></g><g><path fill="#444445" d="M52,54.973c0-1.105-0.895-1.5-2-1.5s-2,0.395-2,1.5c0,1.105,0.895,2,2,2S52,56.077,52,54.973z"/><path fill="#1f212b" d="M50,57.473c-1.378,0-2.5-1.121-2.5-2.5c0-1.252,0.935-2,2.5-2s2.5,0.748,2.5,2 C52.5,56.352,51.378,57.473,50,57.473z M50,53.973c-1.5,0-1.5,0.753-1.5,1c0,0.827,0.673,1.5,1.5,1.5s1.5-0.673,1.5-1.5 C51.5,54.726,51.5,53.973,50,53.973z"/></g><path fill="#1f212b" d="M47.83,60.943c-1.372,0-2.83-0.865-2.83-2.47c0-0.276,0.224-0.5,0.5-0.5s0.5,0.224,0.5,0.5	c0,1.458,2.129,1.81,3.014,1.098c0.322-0.258,0.486-0.627,0.486-1.098v-1.5c0-0.276,0.224-0.5,0.5-0.5s0.5,0.224,0.5,0.5v1.5	c0,0.777-0.298,1.428-0.861,1.879C49.164,60.733,48.521,60.943,47.83,60.943z"/><path fill="#1f212b" d="M52.17,60.943c-0.691,0-1.333-0.21-1.809-0.591c-0.563-0.451-0.861-1.102-0.861-1.879v-1.5	c0-0.276,0.224-0.5,0.5-0.5s0.5,0.224,0.5,0.5v1.5c0,0.471,0.164,0.84,0.486,1.098C51.872,60.282,54,59.931,54,58.473	c0-0.276,0.224-0.5,0.5-0.5s0.5,0.224,0.5,0.5C55,60.077,53.542,60.943,52.17,60.943z"/><path fill="#1f212b" d="M57,47.973h-3c-0.552,0-1-0.447-1-1s0.448-1,1-1h3c0.552,0,1,0.447,1,1S57.552,47.973,57,47.973z"/><g><polygon fill="#444445" points="37.5,43.473 46.5,47.473 40.5,40.473"/><path fill="#1f212b" d="M46.5,47.973c-0.068,0-0.138-0.014-0.203-0.043l-9-4c-0.15-0.067-0.258-0.204-0.289-0.366 c-0.03-0.161,0.021-0.328,0.138-0.444l3-3c0.098-0.098,0.229-0.155,0.373-0.146c0.139,0.006,0.27,0.069,0.36,0.175l6,7 c0.152,0.178,0.161,0.437,0.021,0.624C46.804,47.902,46.654,47.973,46.5,47.973z M38.368,43.312l6.311,2.805l-4.207-4.908 L38.368,43.312z"/></g><g><path fill="#f497b0" d="M75,23.973c0-6-5-11-11-11c-5.247,0-10,2.25-10,9c0,5.799,5,12,10.5,12 C69.747,33.973,75,29.772,75,23.973z"/><path fill="#1f212b" d="M64.5,34.973c-5.804,0-11.5-6.439-11.5-13c0-6.355,4.009-10,11-10c6.505,0,12,5.495,12,12 C76,30.553,70.054,34.973,64.5,34.973z M64,13.973c-4.106,0-9,1.388-9,8c0,5.448,4.794,11,9.5,11c4.588,0,9.5-3.616,9.5-9 C74,18.552,69.42,13.973,64,13.973z"/></g></svg>